<svg width="24" height="24" viewBox="0 0 24 24" fill="none" xmlns="http://www.w3.org/2000/svg">
<g clip-path="url(#clip0_4432_1105)">
<path fill-rule="evenodd" clip-rule="evenodd" d="M0 1C0 0.447715 0.447715 0 1 0H12C12.5523 0 13 0.447715 13 1C13 1.55228 12.5523 2 12 2H2V18H7C7.55228 18 8 18.4477 8 19C8 19.5523 7.55228 20 7 20H1C0.447715 20 0 19.5523 0 19V1Z" fill="currentColor"/>
<path fill-rule="evenodd" clip-rule="evenodd" d="M13 15C13.5523 15 14 15.4477 14 16V20C14 20.3393 14.2344 20.8172 14.9789 21.2639C15.7035 21.6987 16.7692 22 18 22C19.2308 22 20.2965 21.6987 21.0211 21.2639C21.7656 20.8172 22 20.3393 22 20V16C22 15.4477 22.4477 15 23 15C23.5523 15 24 15.4477 24 16V20C24 21.3177 23.1152 22.3398 22.0501 22.9789C20.9652 23.6298 19.5309 24 18 24C16.4691 24 15.0348 23.6298 13.9499 22.9789C12.8848 22.3398 12 21.3177 12 20V16C12 15.4477 12.4477 15 13 15Z" fill="currentColor"/>
<path fill-rule="evenodd" clip-rule="evenodd" d="M14.979 14.7362C14.2344 15.1829 14 15.6608 14 16C14 16.3392 14.2344 16.8171 14.979 17.2638C15.7037 17.6986 16.7694 18 18 18C19.2306 18 20.2963 17.6986 21.021 17.2638C21.7656 16.8171 22 16.3392 22 16C22 15.6608 21.7656 15.1829 21.021 14.7362C20.2963 14.3014 19.2306 14 18 14C16.7694 14 15.7037 14.3014 14.979 14.7362ZM13.95 13.0212C15.0349 12.3702 16.4692 12 18 12C19.5308 12 20.9651 12.3702 22.05 13.0212C23.1151 13.6602 24 14.6823 24 16C24 17.3177 23.1151 18.3398 22.05 18.9788C20.9651 19.6298 19.5308 20 18 20C16.4692 20 15.0349 19.6298 13.95 18.9788C12.8849 18.3398 12 17.3177 12 16C12 14.6823 12.8849 13.6602 13.95 13.0212Z" fill="currentColor"/>
<path fill-rule="evenodd" clip-rule="evenodd" d="M11 1C11 0.447715 11.4477 0 12 0C14.0965 0 15.8434 1.04695 17.0395 2.31338C18.2087 3.5513 19 5.15968 19 6.5C19 7.05228 18.5523 7.5 18 7.5C17.4477 7.5 17 7.05228 17 6.5C17 5.84032 16.5413 4.6987 15.5855 3.68662C14.6566 2.70305 13.4035 2 12 2C11.4477 2 11 1.55228 11 1Z" fill="currentColor"/>
<path d="M18 12L13.6699 6.75L22.3301 6.75L18 12Z" fill="currentColor"/>
<path fill-rule="evenodd" clip-rule="evenodd" d="M4 6C4 6.55228 4.44772 7 5 7H10C10.5523 7 11 6.55228 11 6C11 5.44772 10.5523 5 10 5H5C4.44772 5 4 5.44772 4 6Z" fill="currentColor"/>
<path fill-rule="evenodd" clip-rule="evenodd" d="M4 10C4 10.5523 4.44772 11 5 11H10C10.5523 11 11 10.5523 11 10C11 9.44772 10.5523 9 10 9H5C4.44772 9 4 9.44772 4 10Z" fill="currentColor"/>
<path fill-rule="evenodd" clip-rule="evenodd" d="M4 14C4 14.5523 4.44772 15 5 15H10C10.5523 15 11 14.5523 11 14C11 13.4477 10.5523 13 10 13H5C4.44772 13 4 13.4477 4 14Z" fill="currentColor"/>
</g>
<defs>
<clipPath id="clip0_4432_1105">
<rect width="24" height="24" fill="currentColor"/>
</clipPath>
</defs>
</svg>